<?xml version="1.0" encoding="utf-8"?>
<!-- Generator: Adobe Illustrator 16.0.0, SVG Export Plug-In . SVG Version: 6.00 Build 0)  -->
<!DOCTYPE svg PUBLIC "-//W3C//DTD SVG 1.1//EN" "http://www.w3.org/Graphics/SVG/1.1/DTD/svg11.dtd">
<svg version="1.1" id="Layer_1" xmlns="http://www.w3.org/2000/svg" xmlns:xlink="http://www.w3.org/1999/xlink" x="0px" y="0px"
	 width="1755.175px" height="1269.127px" viewBox="65.226 92.257 1755.175 1269.127"
	 enable-background="new 65.226 92.257 1755.175 1269.127" xml:space="preserve">
<g>
	<g>
		<polygon fill="#FF6C39" points="1578.253,314.871 1468.454,202.191 1485.414,185.312 1595.791,298.116 		"/>
	</g>
	<g>
		<polygon fill="#FF6C39" points="1676.113,485.423 1433.252,236.279 1450.791,219.525 1693.775,468.09 		"/>
	</g>
	
		<rect x="1278.492" y="408.835" transform="matrix(0.6985 0.7156 -0.7156 0.6985 710.3898 -844.2241)" fill="#FF6C39" width="157.183" height="24.226"/>
	
		<rect x="1309.521" y="376.936" transform="matrix(-0.7151 0.699 -0.699 -0.7151 2585.1733 -142.5475)" fill="#FF6C39" width="24.227" height="157.169"/>
	
		<rect x="1313.13" y="374.45" transform="matrix(0.6987 0.7154 -0.7154 0.6987 695.8654 -879.1785)" fill="#FF6C39" width="157.179" height="24.226"/>
	
		<rect x="1354.423" y="374.542" transform="matrix(0.6986 0.7155 -0.7155 0.6986 737.3202 -977.0737)" fill="#FF6C39" width="348.029" height="24.227"/>
	
		<rect x="1319.293" y="408.616" transform="matrix(0.6987 0.7154 -0.7154 0.6987 750.9183 -941.5654)" fill="#FF6C39" width="348.037" height="24.226"/>
	<path fill="#45B6C9" d="M1810.595,439.602l-328.493-336.631l-214.064,209.351l-101.37,4.63l-3.109,5.976L985.11,652.455
		l506.597,273.663l177.744-329.077l3.109-5.977l-6.207-10.415L1810.595,439.602z M1486.812,884.547l-136.495-254.503l287.708-24.699
		L1486.812,884.547L1486.812,884.547z M1090.562,509.044l7.299-14.138l75.854-140.755l137.073,254.627l-288.285,24.575
		L1090.562,509.044z M1538.602,589.84l-28.315,2.326l-18.813-19.193c1.404-0.903,2.232-1.935,3.639-2.84
		c6.949-6.958,10.686-15.822,10.955-25.437c0.271-9.615-3.752-18.951-10.133-25.776c-2.512-2.357-5.602-4.842-8.815-6.747
		c-14.013-7.875-31.56-5.026-42.397,5.924c-6.949,6.958-10.686,15.822-10.955,25.438c-0.271,9.615,3.752,18.952,10.134,25.775
		c0.577,0.125,0.45,0.703,1.028,0.828l-27.674,27.255l2.512,2.358l-6.854,0.933l-31.123-32.14l87.488-85.635l87.568,89.722
		L1538.602,589.84z M1434.172,597.433l33.094-32.73l27.129,28.252l-59.77,5.182L1434.172,597.433z M1452.376,560.87
		c-4.447-4.591-6.784-10.54-7.142-17.269c0.223-6.602,2.755-12.703,7.347-17.149c7.651-7.411,18.923-9.199,28.692-4.06
		c2.185,1.078,4.244,2.733,5.726,4.265c4.446,4.592,6.785,10.54,7.141,17.268c0.355,6.729-2.754,12.705-7.346,17.15
		c-0.827,1.03-2.231,1.935-3.638,2.839l-15.853-16.133l-13.897,13.916C1452.828,561.572,1452.953,560.995,1452.376,560.87z
		 M1323.859,632.169l133.125,247.728l-414.105-223.384L1323.859,632.169z M1481.318,137.264l294.856,302.132L1630.53,581.349
		l-54.198,4.577l13.773-13.339l-121.78-124.345l-122.689,119.722l34.665,35.326l-43.178,3.942l-115.91-215.579L1481.318,137.264z
		 M1209.751,369.217l-15.406-29.337l47.671-2.364L1209.751,369.217z"/>
</g>
<g>
	<polygon fill="#FFFFFF" points="463.748,583.579 97.552,883.896 465.729,1333.124 832.501,1032.93 	"/>
	<path fill="#45B6C9" d="M854.946,1035.377L466.195,561.135L74.982,882.029l388.752,474.242L854.946,1035.377z M809.354,1030.938
		L468.175,1310.68L120.123,885.768l341.881-280.195L809.354,1030.938z"/>
	<g>
		
			<rect x="413.927" y="1094.265" transform="matrix(-0.7734 0.6339 -0.6339 -0.7734 1752.4806 1598.1512)" fill="#FF6C39" width="353.366" height="36.046"/>
	</g>
	<g>
		
			<rect x="365.702" y="1034.693" transform="matrix(-0.7735 0.6339 -0.6339 -0.7735 1629.1628 1523.1444)" fill="#FF6C39" width="353.366" height="36.045"/>
	</g>
	<g>
		
			<rect x="316.627" y="975.418" transform="matrix(-0.7734 0.6339 -0.6339 -0.7734 1504.5885 1449.066)" fill="#FF6C39" width="353.366" height="36.046"/>
	</g>
	<g>
		
			<rect x="267.962" y="915.938" transform="matrix(-0.7734 0.6339 -0.6339 -0.7734 1380.5815 1374.4316)" fill="#FF6C39" width="353.366" height="36.046"/>
	</g>
	<g>
		
			<rect x="218.599" y="855.564" transform="matrix(-0.7734 0.6339 -0.6339 -0.7734 1257.9132 1297.5308)" fill="#FF6C39" width="356.912" height="36.046"/>
	</g>
	<g>
		
			<rect x="170.313" y="795.978" transform="matrix(-0.7734 0.6339 -0.6339 -0.7734 1133.4639 1222.8418)" fill="#FF6C39" width="355.729" height="36.046"/>
	</g>
</g>
<g>
	<g>
		<g>
			<path fill="#45B6C9" d="M319.577,172.026l63.199,394.605l325.701-52.136L645.278,119.89L319.577,172.026z M684.415,497.188
				l-284.332,45.384L343.06,189.209l284.332-45.384L684.415,497.188z"/>
		</g>
	</g>
	<path fill="#FF6C39" d="M560.576,457.646l0.375-1.731c0.751-3.465,0.751-3.465-0.934-6.854l-0.903-1.404
		c-0.452-0.703-0.779-1.983-1.106-3.264c-0.529-3.138,0.798-6.478,3.033-8.411l1.53-1.482c2.936-2.386,2.936-2.386,3.234-6.554
		l0.375-1.732c0.876-4.042,4.062-7.584,8.48-8.439l1.856-0.202c3.717-0.404,3.717-0.404,6.776-3.369l1.406-0.905
		c3.061-2.965,8.057-3.695,11.848-1.664l1.608,0.953c3.214,1.906,3.214,1.906,7.631,1.05l1.857-0.203
		c4.418-0.855,8.788,1.301,10.347,5.267l0.905,1.404c0.778,1.982,1.231,2.687,1.684,3.389c5.67-6.631,10.184-13.512,14.248-21.096
		c-8.489-5.469-21.521-9.502-38.768-10.821c-16.546-1.773-30.982-4.902-30.982-4.902c-2.186-1.078-2.771-15.11-2.771-15.11
		l-15.312,0.912c-0.452-0.703-3.146-13.378-3.146-13.378c11.569-5.956,10.1-29.854,10.1-29.854
		c8.412,3.033,10.232-16.526,10.232-16.526c4.729-27.391-8.199-23.543-8.199-23.543c1.244-19.683-5.375-47.721-5.375-47.721
		c-14.364-50.877-84.117-30.326-93.244-10.537c-31.35,10.738-7.821,61.184-7.821,61.184l6.938,15.41
		c-9.761,8.769-1.07,16.093,0.97,26.209c2.896,14.533,11.655,10.386,11.655,10.386c4.357,24.524,20.575,25.017,20.575,25.017
		c4.628,14.91,2.443,13.832,2.443,13.832l-13.706,1.865c0.98,3.841,1.163,14.158,1.163,14.158
		c-11.945,7.688-14.38,7.766-26.326,15.455c-22.483,14.474-31.417,22.211-31.417,22.211c-0.702,0.452-1.531,1.481-2.232,1.935
		c26.148,24.411,61.854,38.197,99.209,36.016l31.954-5.166c3.841-0.98,7.807-2.54,11.772-4.098
		c-0.904-1.405-1.232-2.688-1.561-3.966C560.2,459.379,560.325,458.802,560.576,457.646z"/>
	<path fill="#FF6C39" d="M623.148,436.748c0.125-0.577,0.25-1.155-0.201-1.857c-0.202-1.857-1.684-3.389-3.291-4.342
		c-5.978-3.109-4.947-2.281-7.989-7.777c-1.357-2.108-3.994-3.889-6.553-3.234l0,0c-6.275,1.058-5.121,1.308-11.099-1.801
		c-1.029-0.828-2.888-0.626-4.042-0.876c-1.28,0.327-2.561,0.653-3.389,1.685c-4.591,4.446-3.888,3.994-10.164,5.052l0,0
		c-2.561,0.655-4.793,2.589-5.294,4.898c-0.799,6.478-0.549,5.323-5.141,9.768c-1.531,1.483-1.906,3.216-1.704,5.073
		c-0.125,0.577,0.327,1.28,0.778,1.983c3.041,5.497,2.715,4.216,1.915,10.693c-0.125,0.577-0.25,1.155,0.202,1.857
		c0.202,1.856,1.685,3.388,3.291,4.341c5.978,3.109,5.072,1.704,7.988,7.778c1.357,2.107,3.994,3.888,6.555,3.234l0,0
		c6.275-1.059,5.119-1.309,11.098,1.801c1.028,0.827,2.887,0.626,4.041,0.876c1.281-0.327,2.562-0.654,3.39-1.685
		c4.591-4.446,3.311-4.12,10.164-5.053l0,0c2.56-0.654,4.793-2.589,5.294-4.898c0.799-6.478,0.549-5.321,5.141-9.768
		c1.531-1.482,1.906-3.215,1.704-5.073c0.125-0.577-0.327-1.28-0.778-1.981C622.021,441.945,622.349,443.226,623.148,436.748z
		 M593.088,461.067l-14.215-9.732l4.265-5.727l8.489,5.468l13.043-18.334l5.727,4.264L593.088,461.067z"/>
</g>
<rect x="650.868" y="471.264" transform="matrix(-0.9966 -0.0825 0.0825 -0.9966 1845.1487 1820.5776)" fill="#FFFFFF" width="618.638" height="801.807"/>
<path fill="#45B6C9" d="M1142.842,443.591l4.586-54.63l-41.549-3.564c0,0-37.699-113.375-82.263-116.987l-37.96-3.392
	C941.093,261.403,885.5,367.252,885.5,367.252l-39.239-3.064l-4.586,54.631l-164.469-13.885l-72.729,876.645l657.545,54.258
	l72.729-876.644L1142.842,443.591z M1001.293,301.659c25.005,1.794,43.193,23.874,41.401,48.88
	c-1.793,25.005-23.874,43.194-48.878,41.401c-25.006-1.792-43.195-23.874-41.401-48.881
	C954.909,317.604,976.414,299.29,1001.293,301.659z M1220.273,1171.4l-93.396,71.053l-23.146-1.995l6.88-81.945l109.838,9.298
	L1220.273,1171.4z M1222.866,1139.918l-137.153-11.592l-9.299,109.838l-438.321-36.365l61.841-739.941l137.153,11.592l-2.293,27.314
	l301.745,24.898l2.294-27.315l137.153,11.593L1222.866,1139.918L1222.866,1139.918z"/>
<g>
	<path fill="#45B6C9" d="M718.076,573.41l-9.298,109.838l109.838,9.297l9.298-109.837L718.076,573.41z M799.396,669.638
		l-67.709-5.607l5.607-67.71l67.71,5.607L799.396,669.638z"/>
</g>
<g>
	<path fill="#45B6C9" d="M702.477,765.318l-9.299,109.838l109.838,9.298l9.299-109.838L702.477,765.318z M783.796,861.546
		l-67.71-5.607l5.608-67.709l67.71,5.606L783.796,861.546z"/>
</g>
<g>
	<path fill="#45B6C9" d="M688.591,929.787l-9.299,109.837l109.838,9.299l9.298-109.838L688.591,929.787z M769.912,1026.015
		l-67.71-5.607l5.606-67.711l67.711,5.607L769.912,1026.015z"/>
</g>
<g>
	<line fill="none" x1="880.25" y1="614.609" x2="1181.996" y2="639.509"/>
	
		<rect x="853.226" y="599.391" transform="matrix(0.9966 0.0825 -0.0825 0.9966 54.1124 -83.0451)" fill="#FF6C39" width="357.474" height="27.771"/>
</g>
<g>
	<line fill="none" x1="875.664" y1="669.241" x2="1177.286" y2="694.717"/>
	
		<rect x="846.266" y="681.934" transform="matrix(0.9966 0.0825 -0.0825 0.9966 60.8984 -82.1898)" fill="#FF6C39" width="357.473" height="27.769"/>
</g>
<g>
	<line fill="none" x1="864.65" y1="806.519" x2="1165.819" y2="831.293"/>
	
		<rect x="837.643" y="791.25" transform="matrix(0.9966 0.0825 -0.0825 0.9966 69.8875 -81.1057)" fill="#FF6C39" width="357.473" height="27.77"/>
</g>
<g>
	<line fill="none" x1="841.661" y1="859.579" x2="939.574" y2="868.105"/>
	
		<rect x="831.251" y="863.505" transform="matrix(0.9966 0.0825 -0.0825 0.9966 75.4205 -70.3919)" fill="#FF6C39" width="116.401" height="27.771"/>
</g>
<line fill="none" x1="850.766" y1="970.987" x2="1179.827" y2="998.179"/>
<rect x="823.833" y="956.918" transform="matrix(0.9966 0.0825 -0.0825 0.9966 83.5544 -80.5465)" fill="#FF6C39" width="385.248" height="27.77"/>
<line fill="none" x1="846.179" y1="1025.616" x2="1092.593" y2="1046.381"/>
<rect x="817.256" y="1036.003" transform="matrix(0.9966 0.0825 -0.0825 0.9966 89.9164 -76.323)" fill="#FF6C39" width="302.524" height="27.769"/>
<polyline fill="none" stroke="#FF6C39" stroke-width="9" stroke-miterlimit="10" points="743.72,615.174 773.681,650.872 
	842.5,593.045 "/>
<polyline fill="none" stroke="#FF6C39" stroke-width="9" stroke-miterlimit="10" points="729.555,807.955 760.023,843.763 
	828.951,785.431 "/>
<g>
	<path fill="#FF6C39" d="M1193.127,906.138l-63.766,1.293l1.295,63.766l298.863,283.651l58.332-59.907L1193.127,906.138z"/>
</g>
</svg>
